{
    "asset" : {
        "generator" : "Khronos Blender glTF 2.0 I/O",
        "version" : "2.0"
    },
    "scene" : 0,
    "scenes" : [
        {
            "nodes" : [
                0
            ],
            "name" : "Scene"
        }
    ],
    "nodes" : [
        {
            "mesh" : 0,
            "name" : "asteroid-05--low"
        }
    ],
    "meshes" : [
        {
            "name" : "Cube.001",
            "primitives" : [
                {
                    "indices" : 3,
                    "attributes" : {
                        "POSITION" : 0,
                        "NORMAL" : 1,
                        "TEXCOORD_0" : 2
                    }
                }
            ]
        }
    ],
    "accessors" : [
        {
            "count" : 174,
            "max" : [
                1.7767305374145508,
                2.2206037044525146,
                3.836956024169922
            ],
            "componentType" : 5126,
            "min" : [
                -2.3138091564178467,
                -2.0525617599487305,
                -1.0457210540771484
            ],
            "bufferView" : 0,
            "type" : "VEC3"
        },
        {
            "count" : 174,
            "bufferView" : 1,
            "type" : "VEC3",
            "componentType" : 5126
        },
        {
            "count" : 174,
            "bufferView" : 2,
            "type" : "VEC2",
            "componentType" : 5126
        },
        {
            "count" : 240,
            "bufferView" : 3,
            "type" : "SCALAR",
            "componentType" : 5123
        }
    ],
    "bufferViews" : [
        {
            "buffer" : 0,
            "byteLength" : 2088,
            "byteOffset" : 0
        },
        {
            "buffer" : 0,
            "byteLength" : 2088,
            "byteOffset" : 2088
        },
        {
            "buffer" : 0,
            "byteLength" : 1392,
            "byteOffset" : 4176
        },
        {
            "buffer" : 0,
            "byteLength" : 480,
            "byteOffset" : 5568
        }
    ],
    "buffers" : [
        {
            "byteLength" : 6048,
            "uri" : "asteroid_05_low.bin"
        }
    ]
}
