{
    "asset" : {
        "generator" : "Khronos Blender glTF 2.0 I/O",
        "version" : "2.0"
    },
    "scene" : 0,
    "scenes" : [
        {
            "nodes" : [
                0
            ],
            "name" : "Scene"
        }
    ],
    "nodes" : [
        {
            "mesh" : 0,
            "name" : "asteroid-01_low"
        }
    ],
    "meshes" : [
        {
            "name" : "Cube.002",
            "primitives" : [
                {
                    "indices" : 3,
                    "attributes" : {
                        "POSITION" : 0,
                        "NORMAL" : 1,
                        "TEXCOORD_0" : 2
                    }
                }
            ]
        }
    ],
    "accessors" : [
        {
            "count" : 276,
            "max" : [
                1.8427541255950928,
                1.6273159980773926,
                3.318343162536621
            ],
            "componentType" : 5126,
            "min" : [
                -1.6569911241531372,
                -1.4619120359420776,
                -0.8018605709075928
            ],
            "bufferView" : 0,
            "type" : "VEC3"
        },
        {
            "count" : 276,
            "bufferView" : 1,
            "type" : "VEC3",
            "componentType" : 5126
        },
        {
            "count" : 276,
            "bufferView" : 2,
            "type" : "VEC2",
            "componentType" : 5126
        },
        {
            "count" : 276,
            "bufferView" : 3,
            "type" : "SCALAR",
            "componentType" : 5123
        }
    ],
    "bufferViews" : [
        {
            "buffer" : 0,
            "byteLength" : 3312,
            "byteOffset" : 0
        },
        {
            "buffer" : 0,
            "byteLength" : 3312,
            "byteOffset" : 3312
        },
        {
            "buffer" : 0,
            "byteLength" : 2208,
            "byteOffset" : 6624
        },
        {
            "buffer" : 0,
            "byteLength" : 552,
            "byteOffset" : 8832
        }
    ],
    "buffers" : [
        {
            "byteLength" : 9384,
            "uri" : "asteroid_01_low.bin"
        }
    ]
}
