{
    "accessors" : [
        {
            "bufferView" : 0,
            "componentType" : 5121,
            "count" : 72,
            "max" : [
                45
            ],
            "min" : [
                0
            ],
            "type" : "SCALAR"
        },
        {
            "bufferView" : 1,
            "componentType" : 5126,
            "count" : 46,
            "max" : [
                0.03462840989232063,
                -0.7457209825515747,
                -0.20000000298023224
            ],
            "min" : [
                -0.03462842106819153,
                -1.38572096824646,
                -0.4399999976158142
            ],
            "type" : "VEC3"
        },
        {
            "bufferView" : 2,
            "componentType" : 5126,
            "count" : 46,
            "max" : [
                1.0,
                1.0,
                1.0
            ],
            "min" : [
                -1.0,
                -1.0,
                -1.0
            ],
            "type" : "VEC3"
        },
        {
            "bufferView" : 3,
            "componentType" : 5126,
            "count" : 46,
            "max" : [
                1.0,
                1.0,
                1.2245353900652844e-05,
                1.0
            ],
            "min" : [
                -1.0,
                -1.0,
                -1.2187569154775701e-05,
                1.0
            ],
            "type" : "VEC4"
        },
        {
            "bufferView" : 4,
            "componentType" : 5126,
            "count" : 46,
            "max" : [
                1.38572096824646,
                2.38572096824646
            ],
            "min" : [
                -1.38572096824646,
                -0.38572096824645996
            ],
            "type" : "VEC2"
        },
        {
            "bufferView" : 5,
            "componentType" : 5121,
            "count" : 72,
            "max" : [
                24
            ],
            "min" : [
                0
            ],
            "type" : "SCALAR"
        },
        {
            "bufferView" : 6,
            "componentType" : 5126,
            "count" : 25,
            "max" : [
                0.017510399222373962,
                0.2224826067686081,
                -0.18248960375785828
            ],
            "min" : [
                -0.017510399222373962,
                0.2224826067686081,
                -0.2175104022026062
            ],
            "type" : "VEC3"
        },
        {
            "bufferView" : 7,
            "componentType" : 5126,
            "count" : 25,
            "max" : [
                0.0,
                1.0,
                -0.0
            ],
            "min" : [
                0.0,
                0.999969482421875,
                -0.0
            ],
            "type" : "VEC3"
        },
        {
            "bufferView" : 8,
            "componentType" : 5126,
            "count" : 25,
            "max" : [
                1.0,
                2.9335508315853076e-06,
                -0.0,
                1.0
            ],
            "min" : [
                0.9999999403953552,
                -2.9333270958886715e-06,
                -0.0,
                1.0
            ],
            "type" : "VEC4"
        },
        {
            "bufferView" : 9,
            "componentType" : 5126,
            "count" : 25,
            "max" : [
                0.017510399222373962,
                0.8175103962421417
            ],
            "min" : [
                -0.017510399222373962,
                0.7824895977973938
            ],
            "type" : "VEC2"
        },
        {
            "bufferView" : 10,
            "componentType" : 5123,
            "count" : 1062,
            "max" : [
                544
            ],
            "min" : [
                0
            ],
            "type" : "SCALAR"
        },
        {
            "bufferView" : 11,
            "componentType" : 5126,
            "count" : 545,
            "max" : [
                0.20025280117988586,
                0.24142609536647797,
                0.03999999165534973
            ],
            "min" : [
                -0.20025280117988586,
                -1.38572096824646,
                -0.4002527892589569
            ],
            "type" : "VEC3"
        },
        {
            "bufferView" : 12,
            "componentType" : 5126,
            "count" : 545,
            "max" : [
                1.0,
                1.0,
                1.0
            ],
            "min" : [
                -1.0,
                -1.0,
                -1.0
            ],
            "type" : "VEC3"
        },
        {
            "bufferView" : 13,
            "componentType" : 5126,
            "count" : 545,
            "max" : [
                1.0,
                1.0,
                0.7071067690849304,
                1.0
            ],
            "min" : [
                -1.0,
                -1.0,
                -0.7071067690849304,
                1.0
            ],
            "type" : "VEC4"
        },
        {
            "bufferView" : 14,
            "componentType" : 5126,
            "count" : 545,
            "max" : [
                1.38572096824646,
                2.38572096824646
            ],
            "min" : [
                -1.38572096824646,
                -0.38572096824645996
            ],
            "type" : "VEC2"
        },
        {
            "bufferView" : 15,
            "componentType" : 5121,
            "count" : 144,
            "max" : [
                95
            ],
            "min" : [
                0
            ],
            "type" : "SCALAR"
        },
        {
            "bufferView" : 16,
            "componentType" : 5126,
            "count" : 96,
            "max" : [
                0.025655200704932213,
                0.2557032108306885,
                -0.17434479296207428
            ],
            "min" : [
                -0.025655200704932213,
                0.2224826067686081,
                -0.225655198097229
            ],
            "type" : "VEC3"
        },
        {
            "bufferView" : 17,
            "componentType" : 5126,
            "count" : 96,
            "max" : [
                0.9633777737617493,
                0.23618274927139282,
                0.9633777737617493
            ],
            "min" : [
                -0.9633777737617493,
                0.23615223169326782,
                -0.9633777737617493
            ],
            "type" : "VEC3"
        },
        {
            "bufferView" : 18,
            "componentType" : 5126,
            "count" : 96,
            "max" : [
                0.9458761811256409,
                0.3177984356880188,
                0.6087984442710876,
                1.0
            ],
            "min" : [
                -0.9914456009864807,
                -0.3178003132343292,
                -0.6087897419929504,
                1.0
            ],
            "type" : "VEC4"
        },
        {
            "bufferView" : 19,
            "componentType" : 5126,
            "count" : 96,
            "max" : [
                0.2557032108306885,
                1.2557032108306885
            ],
            "min" : [
                -0.2557032108306885,
                0.7442967891693115
            ],
            "type" : "VEC2"
        },
        {
            "bufferView" : 20,
            "componentType" : 5121,
            "count" : 72,
            "max" : [
                41
            ],
            "min" : [
                0
            ],
            "type" : "SCALAR"
        },
        {
            "bufferView" : 21,
            "componentType" : 5126,
            "count" : 42,
            "max" : [
                0.0,
                -0.7457209825515747,
                -0.15671449899673462
            ],
            "min" : [
                -0.19200000166893005,
                -1.38572096824646,
                -0.24328550696372986
            ],
            "type" : "VEC3"
        },
        {
            "bufferView" : 22,
            "componentType" : 5126,
            "count" : 42,
            "max" : [
                1.0,
                1.0,
                1.0
            ],
            "min" : [
                -1.0,
                -1.0,
                -1.0
            ],
            "type" : "VEC3"
        },
        {
            "bufferView" : 23,
            "componentType" : 5126,
            "count" : 42,
            "max" : [
                1.0,
                1.0,
                3.636381006799638e-05,
                1.0
            ],
            "min" : [
                -1.0,
                -1.0,
                -3.6223969800630584e-05,
                1.0
            ],
            "type" : "VEC4"
        },
        {
            "bufferView" : 24,
            "componentType" : 5126,
            "count" : 42,
            "max" : [
                1.38572096824646,
                2.38572096824646
            ],
            "min" : [
                -1.38572096824646,
                -0.38572096824645996
            ],
            "type" : "VEC2"
        },
        {
            "bufferView" : 25,
            "componentType" : 5123,
            "count" : 606,
            "max" : [
                355
            ],
            "min" : [
                0
            ],
            "type" : "SCALAR"
        },
        {
            "bufferView" : 26,
            "componentType" : 5126,
            "count" : 356,
            "max" : [
                0.20025280117988586,
                0.2626948058605194,
                0.00025281310081481934
            ],
            "min" : [
                -0.20025280117988586,
                -0.800000011920929,
                -0.4002527892589569
            ],
            "type" : "VEC3"
        },
        {
            "bufferView" : 27,
            "componentType" : 5126,
            "count" : 356,
            "max" : [
                1.0,
                1.0,
                1.0
            ],
            "min" : [
                -1.0,
                0.0,
                -0.9633777737617493
            ],
            "type" : "VEC3"
        },
        {
            "bufferView" : 28,
            "componentType" : 5126,
            "count" : 356,
            "max" : [
                1.0,
                1.0,
                0.7071070075035095,
                1.0
            ],
            "min" : [
                -1.0,
                -1.0,
                -0.7071070075035095,
                1.0
            ],
            "type" : "VEC4"
        },
        {
            "bufferView" : 29,
            "componentType" : 5126,
            "count" : 356,
            "max" : [
                0.800000011920929,
                1.2626948058605194
            ],
            "min" : [
                -0.800000011920929,
                0.19999998807907104
            ],
            "type" : "VEC2"
        }
    ],
    "asset" : {
        "generator" : "Khronos Blender glTF 2.0 exporter",
        "version" : "2.0"
    },
    "bufferViews" : [
        {
            "buffer" : 0,
            "byteLength" : 72,
            "byteOffset" : 0,
            "target" : 34963
        },
        {
            "buffer" : 0,
            "byteLength" : 552,
            "byteOffset" : 72,
            "target" : 34962
        },
        {
            "buffer" : 0,
            "byteLength" : 552,
            "byteOffset" : 624,
            "target" : 34962
        },
        {
            "buffer" : 0,
            "byteLength" : 736,
            "byteOffset" : 1176,
            "target" : 34962
        },
        {
            "buffer" : 0,
            "byteLength" : 368,
            "byteOffset" : 1912,
            "target" : 34962
        },
        {
            "buffer" : 0,
            "byteLength" : 72,
            "byteOffset" : 2280,
            "target" : 34963
        },
        {
            "buffer" : 0,
            "byteLength" : 300,
            "byteOffset" : 2352,
            "target" : 34962
        },
        {
            "buffer" : 0,
            "byteLength" : 300,
            "byteOffset" : 2652,
            "target" : 34962
        },
        {
            "buffer" : 0,
            "byteLength" : 400,
            "byteOffset" : 2952,
            "target" : 34962
        },
        {
            "buffer" : 0,
            "byteLength" : 200,
            "byteOffset" : 3352,
            "target" : 34962
        },
        {
            "buffer" : 0,
            "byteLength" : 2124,
            "byteOffset" : 3552,
            "target" : 34963
        },
        {
            "buffer" : 0,
            "byteLength" : 6540,
            "byteOffset" : 5676,
            "target" : 34962
        },
        {
            "buffer" : 0,
            "byteLength" : 6540,
            "byteOffset" : 12216,
            "target" : 34962
        },
        {
            "buffer" : 0,
            "byteLength" : 8720,
            "byteOffset" : 18756,
            "target" : 34962
        },
        {
            "buffer" : 0,
            "byteLength" : 4360,
            "byteOffset" : 27476,
            "target" : 34962
        },
        {
            "buffer" : 0,
            "byteLength" : 144,
            "byteOffset" : 31836,
            "target" : 34963
        },
        {
            "buffer" : 0,
            "byteLength" : 1152,
            "byteOffset" : 31980,
            "target" : 34962
        },
        {
            "buffer" : 0,
            "byteLength" : 1152,
            "byteOffset" : 33132,
            "target" : 34962
        },
        {
            "buffer" : 0,
            "byteLength" : 1536,
            "byteOffset" : 34284,
            "target" : 34962
        },
        {
            "buffer" : 0,
            "byteLength" : 768,
            "byteOffset" : 35820,
            "target" : 34962
        },
        {
            "buffer" : 0,
            "byteLength" : 72,
            "byteOffset" : 36588,
            "target" : 34963
        },
        {
            "buffer" : 0,
            "byteLength" : 504,
            "byteOffset" : 36660,
            "target" : 34962
        },
        {
            "buffer" : 0,
            "byteLength" : 504,
            "byteOffset" : 37164,
            "target" : 34962
        },
        {
            "buffer" : 0,
            "byteLength" : 672,
            "byteOffset" : 37668,
            "target" : 34962
        },
        {
            "buffer" : 0,
            "byteLength" : 336,
            "byteOffset" : 38340,
            "target" : 34962
        },
        {
            "buffer" : 0,
            "byteLength" : 1212,
            "byteOffset" : 38676,
            "target" : 34963
        },
        {
            "buffer" : 0,
            "byteLength" : 4272,
            "byteOffset" : 39888,
            "target" : 34962
        },
        {
            "buffer" : 0,
            "byteLength" : 4272,
            "byteOffset" : 44160,
            "target" : 34962
        },
        {
            "buffer" : 0,
            "byteLength" : 5696,
            "byteOffset" : 48432,
            "target" : 34962
        },
        {
            "buffer" : 0,
            "byteLength" : 2848,
            "byteOffset" : 54128,
            "target" : 34962
        }
    ],
    "buffers" : [
        {
            "byteLength" : 56976,
            "uri" : "missile.bin"
        }
    ],
    "materials" : [
        {
            "name" : "_defaultMat",
            "pbrMetallicRoughness" : {
                "metallicFactor" : 0.0
            }
        },
        {
            "name" : "_defaultMat.001",
            "pbrMetallicRoughness" : {
                "metallicFactor" : 0.0
            }
        },
        {
            "name" : "_defaultMat.002",
            "pbrMetallicRoughness" : {
                "metallicFactor" : 0.0
            }
        },
        {
            "name" : "black",
            "pbrMetallicRoughness" : {
                "baseColorFactor" : [
                    0.2666667103767395,
                    0.2666667103767395,
                    0.2666667103767395,
                    1.0
                ],
                "metallicFactor" : 0.0
            }
        },
        {
            "name" : "blueSteel ",
            "pbrMetallicRoughness" : {
                "baseColorFactor" : [
                    0.14051690697669983,
                    0.5645002722740173,
                    0.8308823704719543,
                    1.0
                ],
                "metallicFactor" : 0.0
            }
        },
        {
            "name" : "engine ",
            "pbrMetallicRoughness" : {
                "baseColorFactor" : [
                    0.4588240087032318,
                    1.0,
                    0.8549020290374756,
                    1.0
                ],
                "metallicFactor" : 0.0
            }
        }
    ],
    "meshes" : [
        {
            "name" : "missile",
            "primitives" : [
                {
                    "attributes" : {
                        "NORMAL" : 2,
                        "POSITION" : 1,
                        "TANGENT" : 3,
                        "TEXCOORD_0" : 4
                    },
                    "indices" : 0,
                    "material" : 1
                },
                {
                    "attributes" : {
                        "NORMAL" : 7,
                        "POSITION" : 6,
                        "TANGENT" : 8,
                        "TEXCOORD_0" : 9
                    },
                    "indices" : 5,
                    "material" : 5
                },
                {
                    "attributes" : {
                        "NORMAL" : 12,
                        "POSITION" : 11,
                        "TANGENT" : 13,
                        "TEXCOORD_0" : 14
                    },
                    "indices" : 10,
                    "material" : 0
                },
                {
                    "attributes" : {
                        "NORMAL" : 17,
                        "POSITION" : 16,
                        "TANGENT" : 18,
                        "TEXCOORD_0" : 19
                    },
                    "indices" : 15,
                    "material" : 3
                },
                {
                    "attributes" : {
                        "NORMAL" : 22,
                        "POSITION" : 21,
                        "TANGENT" : 23,
                        "TEXCOORD_0" : 24
                    },
                    "indices" : 20,
                    "material" : 2
                },
                {
                    "attributes" : {
                        "NORMAL" : 27,
                        "POSITION" : 26,
                        "TANGENT" : 28,
                        "TEXCOORD_0" : 29
                    },
                    "indices" : 25,
                    "material" : 4
                }
            ]
        }
    ],
    "nodes" : [
        {
            "mesh" : 0,
            "name" : "missile",
            "rotation" : [
                0.7071068286895752,
                0.0,
                -0.0,
                0.7071067094802856
            ]
        }
    ],
    "scene" : 0,
    "scenes" : [
        {
            "name" : "Scene",
            "nodes" : [
                0
            ]
        }
    ]
}
